========= BAD MEETS EVIL - FASTLANE FT. EMINEM ROYCE DA 5'9 HD 1080p ==============

Format                           : MPEG-4
Format profile                   : Base Media / Version 2
Codec ID                         : mp42
File size                        : 169 MiB
Duration                         : 4mn 9s
Overall bit rate                 : 5 708 Kbps
Encoded date                     : UTC 2011-06-07 15:35:16
Tagged date                      : UTC 2011-06-07 15:35:16
gsst                             : 0
gstd                             : 249026
gssd                             : BCA9FD842HH1308256563532233
gshh                             :

Video
ID                               : 1
Format                           : AVC
Format/Info                      : Advanced Video Codec
Format profile                   : High@L4.0
Format settings, CABAC           : Yes
Format settings, ReFrames        : 1 frame
Codec ID                         : avc1
Codec ID/Info                    : Advanced Video Coding
Duration                         : 4mn 9s
Bit rate mode                    : Variable
Bit rate                         : 5 551 Kbps
Maximum bit rate                 : 10.6 Mbps
Width                            : 1 920 pixels
Height                           : 1 080 pixels
Display aspect ratio             : 16:9
Frame rate mode                  : Variable
Frame rate                       : 23.976 fps
Minimum frame rate               : 17.241 fps
Maximum frame rate               : 24.390 fps
Color space                      : YUV
Chroma subsampling               : 4:2:0
Bit depth                        : 8 bits
Scan type                        : Progressive
Bits/(Pixel*Frame)               : 0.112
Stream size                      : 165 MiB (97%)
Tagged date                      : UTC 2011-06-07 15:35:18

Audio
ID                               : 2
Format                           : AAC
Format/Info                      : Advanced Audio Codec
Format version                   : Version 4
Format profile                   : LC
Format settings, SBR             : No
Codec ID                         : 40
Duration                         : 4mn 8s
Bit rate mode                    : Variable
Bit rate                         : 152 Kbps
Maximum bit rate                 : 176 Kbps
Channel(s)                       : 2 channels
Channel positions                : Front: L R
Sampling rate                    : 44.1 KHz
Stream size                      : 4.51 MiB (3%)
Title                            : IsoMedia File Produced by Google, 5-11-2011
Encoded date                     : UTC 2011-06-07 15:35:17
Tagged date                      : UTC 2011-06-07 15:35:18

======================== SCREEN SHOT HERE ======================================

                  
                   http://bayimg.com/DAIpOaAdk


============================= FOLLOW ME ON TWEETER AND FACEBOOK =================

           http :///#!/ haunting_summer

  http: // www. facebook. com/ pages/ HaUnTiNgSuMMeR-ToRrEnTs/ 192812490771363

=================================================================================

--------------- PLZ RATE +/- THE QUALITY N COMMENT IF POSSIBLE -----------------
